<svg xmlns="http://www.w3.org/2000/svg" viewBox="0 0 1000 800" fill="none">
  <path d="M 865 195 C 875 235, 873 280, 860 323 C 846 369, 824 409, 798 446 C 772 484, 750 518, 732 556 C 713 598, 686 644, 642 675 C 598 706, 534 717, 474 703 C 420 689, 375 667, 333 645 C 296 626, 260 603, 234 571 C 209 540, 193 499, 186 458 C 178 412, 182 369, 194 330 C 207 288, 229 248, 256 213 C 286 174, 324 144, 371 122 C 422 99, 476 91, 534 95 C 597 99, 656 113, 708 131 C 757 149, 803 168, 845 182 Z" stroke="#475569" stroke-width="34" stroke-linecap="round" stroke-linejoin="round"/>
  <path d="M 865 195 C 875 235, 873 280, 860 323 C 846 369, 824 409, 798 446 C 772 484, 750 518, 732 556 C 713 598, 686 644, 642 675 C 598 706, 534 717, 474 703 C 420 689, 375 667, 333 645 C 296 626, 260 603, 234 571 C 209 540, 193 499, 186 458 C 178 412, 182 369, 194 330 C 207 288, 229 248, 256 213 C 286 174, 324 144, 371 122 C 422 99, 476 91, 534 95 C 597 99, 656 113, 708 131 C 757 149, 803 168, 845 182 Z" stroke="#60A5FA" stroke-width="12" stroke-linecap="round" stroke-linejoin="round"/>
  <line x1="855" y1="185" x2="895" y2="215" stroke="#F8FAFC" stroke-width="4" stroke-linecap="round"/>
</svg>
